<svg xmlns="http://www.w3.org/2000/svg" width="140" height="140" viewBox="0 0 140 140">
  <g fill="none" fill-rule="evenodd" stroke="#8261A3" stroke-linecap="round" stroke-linejoin="round" stroke-width="1.875" transform="translate(20 20)">
    <g transform="translate(0 50)">
      <polygon fill="#D3B9F4" points="0 9.375 40.625 9.375 40.625 50 0 50"/>
      <polygon fill="#E8D7FF" points="9.375 0 50 0 40.625 9.375 0 9.375"/>
      <polygon fill="#A18CC4" points="40.625 9.375 40.625 50 50 40.625 50 0"/>
    </g>
    <g transform="translate(50 40.625)">
      <polygon fill="#D3B9F4" points="0 9.375 40.625 9.375 40.625 50 0 50"/>
      <polygon fill="#E8D7FF" points="9.375 0 50 0 40.625 9.375 0 9.375"/>
      <polygon fill="#A18CC4" points="40.625 9.375 40.625 50 50 40.625 50 0"/>
    </g>
    <g transform="translate(9.375)">
      <polygon fill="#D3B9F4" points="0 9.375 40.625 9.375 40.625 50 0 50"/>
      <polygon fill="#E8D7FF" points="9.375 0 50 0 40.625 9.375 0 9.375"/>
      <polygon fill="#A18CC4" points="40.625 9.375 40.625 50 50 40.625 50 0"/>
    </g>
  </g>
</svg>
